<?xml version="1.0" standalone="no"?>
<!DOCTYPE svg PUBLIC "-//W3C//DTD SVG 20010904//EN"
 "http://www.w3.org/TR/2001/REC-SVG-20010904/DTD/svg10.dtd">
<svg version="1.0" xmlns="http://www.w3.org/2000/svg"
 width="400.000000pt" height="400.000000pt" viewBox="0 0 400.000000 400.000000"
 preserveAspectRatio="xMidYMid meet">
<metadata>
Created by potrace 1.14, written by Peter Selinger 2001-2017
</metadata>
<g transform="translate(0.000000,400.000000) scale(0.100000,-0.100000)"
fill="#000000" stroke="none">
<path d="M1766 3783 c-3 -4 -70 -7 -148 -7 l-143 -1 -72 -195 c-40 -107 -83
-224 -96 -260 -78 -215 -230 -628 -238 -645 -5 -11 -54 -144 -109 -295 -55
-151 -104 -284 -109 -295 -5 -11 -37 -96 -71 -190 -74 -202 -90 -248 -125
-340 -15 -38 -34 -90 -42 -115 -9 -25 -20 -56 -26 -70 -6 -14 -11 -27 -12 -30
-1 -3 -4 -12 -8 -20 -3 -8 -46 -127 -97 -265 -50 -137 -95 -259 -100 -270 -4
-11 -43 -114 -86 -230 -42 -116 -85 -232 -95 -260 -11 -27 -19 -55 -19 -62 0
-7 24 -13 65 -15 36 -1 65 1 65 6 0 5 6 3 14 -3 8 -7 16 -8 19 -4 3 4 50 6
106 3 56 -3 101 -1 101 4 0 5 6 3 14 -3 8 -7 16 -8 19 -4 3 4 50 6 106 3 56
-3 101 -1 101 4 0 5 6 3 14 -3 8 -7 16 -8 19 -4 3 4 50 6 106 3 56 -3 101 -1
101 4 0 5 6 3 13 -3 8 -6 16 -8 20 -5 7 7 157 11 157 4 0 -7 48 -5 55 2 6 6
50 129 120 337 25 73 50 141 54 150 8 15 62 16 577 16 l567 0 54 -155 c30 -85
69 -198 86 -250 l32 -95 53 -5 c28 -3 52 -2 52 3 0 5 6 4 14 -2 8 -7 16 -8 19
-4 3 4 50 6 106 3 56 -3 101 -1 101 4 0 5 6 3 14 -3 8 -7 16 -8 19 -4 3 4 50
6 106 3 56 -3 101 -1 101 4 0 5 6 3 14 -3 8 -7 16 -8 19 -4 3 4 50 6 106 3 56
-3 101 -1 101 4 0 5 6 3 14 -3 8 -7 16 -8 19 -4 3 4 50 6 106 3 56 -3 101 -2
101 2 0 3 9 4 20 1 11 -3 20 -2 20 2 0 7 -76 219 -115 320 -12 33 -41 110 -63
170 -144 393 -341 930 -382 1040 -27 72 -65 175 -85 230 -134 365 -363 990
-373 1015 -6 14 -23 59 -37 100 -15 41 -29 82 -32 90 -4 8 -7 17 -8 20 -1 3
-5 12 -8 20 -4 8 -29 78 -57 155 -28 77 -54 149 -59 160 -5 11 -15 38 -22 60
-6 22 -15 45 -18 50 -4 6 -16 35 -26 66 l-18 56 -91 -1 c-50 -1 -101 1 -113 6
-12 4 -25 3 -28 -2 -3 -5 -17 -6 -31 -4 -35 6 -38 7 -44 5 -19 -7 -82 -6 -86
1 -3 4 -10 5 -17 1 -15 -9 -247 -11 -274 -1 -12 4 -25 3 -28 -2 -5 -8 -50 -5
-65 5 -4 3 -10 2 -14 -2z m265 -1190 c0 -10 2 -25 4 -33 2 -8 6 -30 9 -48 15
-78 81 -320 137 -501 104 -335 108 -349 134 -433 14 -45 25 -83 25 -85 0 -2
-149 -3 -331 -3 -264 0 -330 3 -326 13 5 14 152 471 197 612 37 117 93 319
116 418 16 72 33 100 35 60z"/>
</g>
</svg>
